<svg width="396.921728515625px" height="66.8px" xmlns="http://www.w3.org/2000/svg" viewBox="51.53913574218751 41.6 396.921728515625 66.8" style="background: none;" preserveAspectRatio="xMidYMid"><defs><filter id="editing-metal-beveled"><feGaussianBlur stdDeviation="4" in="SourceAlpha" result="blur"></feGaussianBlur><feSpecularLighting surfaceScale="5" specularConstant="0.8" specularExponent="7.5" lighting-color="#142a34" in="blur" result="specular"><fePointLight x="-250" y="-50" z="300"></fePointLight></feSpecularLighting><feComposite operator="in" in="specular" in2="SourceAlpha" result="comp"></feComposite><feComposite in="SourceGraphic" in2="comp" operator="arithmetic" k1="0" k2="1" k3="1" k4="0"></feComposite></filter></defs><g filter="url(#editing-metal-beveled)"><g transform="translate(111.47154080867767, 87.49499988555908)"><path d="M12.02-2.88L12.02-2.88L12.02-2.88Q12.26-4.11 12.37-5.47L12.37-5.47L12.37-5.47Q12.48-6.82 12.48-8.23L12.48-8.23L12.48-8.23Q12.48-9.71 12.36-11.19L12.36-11.19L12.36-11.19Q12.25-12.66 12.02-14.02L12.02-14.02L12.02-14.02Q11.37-14.20 10.59-14.34L10.59-14.34L10.59-14.34Q9.93-14.47 9.04-14.58L9.04-14.58L9.04-14.58Q8.16-14.68 7.13-14.68L7.13-14.68L7.13-14.68Q6.93-14.68 6.71-14.68L6.71-14.68L6.71-14.68Q6.50-14.68 6.29-14.66L6.29-14.66L6.29-14.66Q6.29-14.46 6.29-13.98L6.29-13.98L6.29-13.98Q6.29-13.50 6.30-12.80L6.30-12.80L6.30-12.80Q6.30-12.11 6.31-11.23L6.31-11.23L6.31-11.23Q6.32-10.36 6.33-9.40L6.33-9.40L6.33-9.40Q6.34-8.44 6.36-7.43L6.36-7.43L6.36-7.43Q6.39-6.42 6.42-5.44L6.42-5.44L6.42-5.44Q6.46-4.45 6.50-3.54L6.50-3.54L6.50-3.54Q6.54-2.64 6.60-1.88L6.60-1.88L6.60-1.88Q7.68-1.92 8.65-2.09L8.65-2.09L8.65-2.09Q9.63-2.25 10.38-2.43L10.38-2.43L10.38-2.43Q11.26-2.64 12.02-2.88ZM5.04-17.50L5.04-17.50L5.04-17.50Q6.42-17.50 7.88-17.36L7.88-17.36L7.88-17.36Q9.34-17.21 10.72-16.85L10.72-16.85L10.72-16.85Q12.09-16.49 13.32-15.86L13.32-15.86L13.32-15.86Q14.55-15.22 15.47-14.25L15.47-14.25L15.47-14.25Q16.39-13.28 16.93-11.91L16.93-11.91L16.93-11.91Q17.47-10.55 17.47-8.71L17.47-8.71L17.47-8.71Q17.47-6.93 17.00-5.54L17.00-5.54L17.00-5.54Q16.54-4.16 15.73-3.11L15.73-3.11L15.73-3.11Q14.93-2.06 13.85-1.34L13.85-1.34L13.85-1.34Q12.77-0.61 11.55-0.15L11.55-0.15L11.55-0.15Q10.32 0.30 9.01 0.51L9.01 0.51L9.01 0.51Q7.70 0.71 6.43 0.71L6.43 0.71L6.43 0.71Q5.20 0.71 4.27 0.66L4.27 0.66L4.27 0.66Q3.33 0.61 2.67 0.55L2.67 0.55L2.67 0.55Q1.91 0.48 1.35 0.39L1.35 0.39L1.35 0.39Q1.49-1.91 1.59-4.20L1.59-4.20L1.59-4.20Q1.70-6.48 1.70-8.79L1.70-8.79L1.70-8.79Q1.70-9.93 1.67-10.96L1.67-10.96L1.67-10.96Q1.64-11.99 1.59-13.00L1.59-13.00L1.59-13.00Q1.55-14.00 1.48-15.03L1.48-15.03L1.48-15.03Q1.42-16.05 1.35-17.20L1.35-17.20L1.35-17.20Q2.32-17.39 3.26-17.44L3.26-17.44L3.26-17.44Q4.20-17.50 5.04-17.50ZM32.13-5.91L32.13-5.50L22.97-4.76L22.97-4.76Q23.03-4.03 23.13-3.32L23.13-3.32L23.13-3.32Q23.24-2.60 23.40-1.88L23.40-1.88L23.40-1.88Q24.43-1.80 25.39-1.80L25.39-1.80L25.39-1.80Q25.92-1.80 26.41-1.82L26.41-1.82L26.41-1.82Q26.91-1.84 27.43-1.88L27.43-1.88L27.43-1.88Q27.46-2.11 27.47-2.34L27.47-2.34L27.47-2.34Q27.48-2.58 27.48-2.81L27.48-2.81L27.48-2.81Q27.48-3.02 27.47-3.23L27.47-3.23L27.47-3.23Q27.47-3.43 27.43-3.64L27.43-3.64L31.85-3.55L31.85-3.55Q31.52-2.44 30.91-1.64L30.91-1.64L30.91-1.64Q30.29-0.84 29.46-0.33L29.46-0.33L29.46-0.33Q28.62 0.18 27.59 0.41L27.59 0.41L27.59 0.41Q26.55 0.64 25.42 0.64L25.42 0.64L25.42 0.64Q24.02 0.64 22.80 0.27L22.80 0.27L22.80 0.27Q21.57-0.11 20.67-0.94L20.67-0.94L20.67-0.94Q19.76-1.78 19.24-3.13L19.24-3.13L19.24-3.13Q18.71-4.48 18.71-6.43L18.71-6.43L18.71-6.43Q18.71-8.02 19.27-9.15L19.27-9.15L19.27-9.15Q19.82-10.29 20.74-11.03L20.74-11.03L20.74-11.03Q21.66-11.77 22.87-12.11L22.87-12.11L22.87-12.11Q24.08-12.46 25.42-12.46L25.42-12.46L25.42-12.46Q26.81-12.46 28.04-12.08L28.04-12.08L28.04-12.08Q29.26-11.71 30.17-10.91L30.17-10.91L30.17-10.91Q31.08-10.11 31.61-8.87L31.61-8.87L31.61-8.87Q32.13-7.63 32.13-5.91L32.13-5.91ZM22.85-7.22L22.85-7.22L27.55-7.22L27.55-7.22Q27.55-8.67 27.26-9.98L27.26-9.98L27.26-9.98Q26.25-10.20 25.15-10.20L25.15-10.20L25.15-10.20Q24.07-10.20 22.97-9.98L22.97-9.98L22.97-9.98Q22.90-9.33 22.88-8.65L22.88-8.65L22.88-8.65Q22.85-7.98 22.85-7.22ZM47.50-6.12L47.50-6.12L47.50-6.12Q47.50-4.65 47.10-3.49L47.10-3.49L47.10-3.49Q46.71-2.32 45.97-1.51L45.97-1.51L45.97-1.51Q45.23-0.70 44.17-0.27L44.17-0.27L44.17-0.27Q43.10 0.16 41.75 0.16L41.75 0.16L41.75 0.16Q40.98 0.14 40.23-0.05L40.23-0.05L40.23-0.05Q39.91-0.13 39.57-0.25L39.57-0.25L39.57-0.25Q39.22-0.38 38.88-0.56L38.88-0.56L38.88-0.56Q38.53-0.74 38.21-0.98L38.21-0.98L38.21-0.98Q37.90-1.23 37.63-1.56L37.63-1.56L37.63-1.56Q37.66 0.45 37.72 2.41L37.72 2.41L37.72 2.41Q37.78 4.37 37.88 6.19L37.88 6.19L33.43 5.91L33.43 5.91Q33.56 3.83 33.66 1.55L33.66 1.55L33.66 1.55Q33.75-0.74 33.81-3.06L33.81-3.06L33.81-3.06Q33.88-5.39 33.91-7.69L33.91-7.69L33.91-7.69Q33.94-9.98 33.94-12.09L33.94-12.09L37.88-12.09L37.88-12.09Q37.80-11.37 37.77-10.65L37.77-10.65L37.77-10.65Q38.04-10.95 38.36-11.16L38.36-11.16L38.36-11.16Q38.68-11.38 39.02-11.54L39.02-11.54L39.02-11.54Q39.36-11.71 39.71-11.82L39.71-11.82L39.71-11.82Q40.05-11.94 40.37-12.01L40.37-12.01L40.37-12.01Q41.11-12.19 41.88-12.21L41.88-12.21L41.88-12.21Q42.53-12.21 43.20-12.03L43.20-12.03L43.20-12.03Q43.86-11.85 44.49-11.50L44.49-11.50L44.49-11.50Q45.12-11.14 45.66-10.63L45.66-10.63L45.66-10.63Q46.21-10.11 46.62-9.43L46.62-9.43L46.62-9.43Q47.03-8.75 47.26-7.93L47.26-7.93L47.26-7.93Q47.50-7.10 47.50-6.12ZM37.63-3.82L37.63-3.07L37.63-3.07Q38.48-2.86 39.24-2.77L39.24-2.77L39.24-2.77Q40.00-2.68 40.83-2.68L40.83-2.68L40.83-2.68Q41.32-2.68 41.86-2.72L41.86-2.72L41.86-2.72Q42.40-2.75 43.03-2.81L43.03-2.81L43.03-2.81Q43.09-3.34 43.11-3.86L43.11-3.86L43.11-3.86Q43.13-4.37 43.13-4.90L43.13-4.90L43.13-4.90Q43.13-5.96 43.04-7.00L43.04-7.00L43.04-7.00Q42.96-8.04 42.81-9.09L42.81-9.09L42.81-9.09Q41.70-9.16 40.85-9.16L40.85-9.16L40.85-9.16Q40.44-9.16 40.07-9.15L40.07-9.15L40.07-9.15Q39.69-9.13 39.31-9.10L39.31-9.10L39.31-9.10Q38.93-9.07 38.54-9.04L38.54-9.04L38.54-9.04Q38.14-9 37.70-8.95L37.70-8.95L37.70-8.95Q37.63-6.43 37.63-3.82L37.63-3.82ZM62.20-5.91L62.20-5.50L53.04-4.76L53.04-4.76Q53.10-4.03 53.20-3.32L53.20-3.32L53.20-3.32Q53.31-2.60 53.47-1.88L53.47-1.88L53.47-1.88Q54.50-1.80 55.46-1.80L55.46-1.80L55.46-1.80Q55.99-1.80 56.48-1.82L56.48-1.82L56.48-1.82Q56.98-1.84 57.50-1.88L57.50-1.88L57.50-1.88Q57.53-2.11 57.54-2.34L57.54-2.34L57.54-2.34Q57.55-2.58 57.55-2.81L57.55-2.81L57.55-2.81Q57.55-3.02 57.54-3.23L57.54-3.23L57.54-3.23Q57.54-3.43 57.50-3.64L57.50-3.64L61.92-3.55L61.92-3.55Q61.59-2.44 60.98-1.64L60.98-1.64L60.98-1.64Q60.36-0.84 59.53-0.33L59.53-0.33L59.53-0.33Q58.69 0.18 57.66 0.41L57.66 0.41L57.66 0.41Q56.63 0.64 55.49 0.64L55.49 0.64L55.49 0.64Q54.09 0.64 52.87 0.27L52.87 0.27L52.87 0.27Q51.64-0.11 50.74-0.94L50.74-0.94L50.74-0.94Q49.83-1.78 49.31-3.13L49.31-3.13L49.31-3.13Q48.79-4.48 48.79-6.43L48.79-6.43L48.79-6.43Q48.79-8.02 49.34-9.15L49.34-9.15L49.34-9.15Q49.89-10.29 50.81-11.03L50.81-11.03L50.81-11.03Q51.73-11.77 52.94-12.11L52.94-12.11L52.94-12.11Q54.15-12.46 55.49-12.46L55.49-12.46L55.49-12.46Q56.88-12.46 58.11-12.08L58.11-12.08L58.11-12.08Q59.33-11.71 60.24-10.91L60.24-10.91L60.24-10.91Q61.15-10.11 61.68-8.87L61.68-8.87L61.68-8.87Q62.20-7.63 62.20-5.91L62.20-5.91ZM52.92-7.22L52.92-7.22L57.62-7.22L57.62-7.22Q57.62-8.67 57.33-9.98L57.33-9.98L57.33-9.98Q56.32-10.20 55.22-10.20L55.22-10.20L55.22-10.20Q54.14-10.20 53.04-9.98L53.04-9.98L53.04-9.98Q52.97-9.33 52.95-8.65L52.95-8.65L52.95-8.65Q52.92-7.98 52.92-7.22ZM76.51-6.12L76.51-6.12L76.51-6.12Q76.51-4.56 76.35-2.94L76.35-2.94L76.35-2.94Q76.18-1.32 75.79 0.29L75.79 0.29L71.71 0.29L71.71 0.29Q71.86-1.45 71.94-3.16L71.94-3.16L71.94-3.16Q72.02-4.86 72.02-6.60L72.02-6.60L72.02-6.60Q72.02-7.18 72.02-7.76L72.02-7.76L72.02-7.76Q72.02-8.34 72-8.93L72-8.93L72-8.93Q71.47-8.99 70.96-9.01L70.96-9.01L70.96-9.01Q70.44-9.02 69.91-9.02L69.91-9.02L69.91-9.02Q68.92-9.02 67.86-8.95L67.86-8.95L67.86-8.95Q67.83-7.99 67.81-7.17L67.81-7.17L67.81-7.17Q67.79-6.35 67.79-5.54L67.79-5.54L67.79-5.54Q67.79-4.95 67.80-4.33L67.80-4.33L67.80-4.33Q67.82-3.71 67.85-3.01L67.85-3.01L67.85-3.01Q67.88-2.31 67.92-1.49L67.92-1.49L67.92-1.49Q67.97-0.68 68.04 0.29L68.04 0.29L64.10 0.29L64.10 0.29Q64.10-1.11 64.09-2.19L64.09-2.19L64.09-2.19Q64.08-3.27 64.05-4.18L64.05-4.18L64.05-4.18Q64.03-5.09 63.99-5.91L63.99-5.91L63.99-5.91Q63.95-6.74 63.89-7.65L63.89-7.65L63.89-7.65Q63.83-8.55 63.76-9.63L63.76-9.63L63.76-9.63Q63.69-10.70 63.60-12.09L63.60-12.09L68.04-12.36L67.95-10.70L67.95-10.70Q68.61-11.17 69.32-11.43L69.32-11.43L69.32-11.43Q70.02-11.68 70.61-11.81L70.61-11.81L70.61-11.81Q71.29-11.95 71.93-11.98L71.93-11.98L71.93-11.98Q72.79-11.98 73.46-11.74L73.46-11.74L73.46-11.74Q74.13-11.51 74.64-11.09L74.64-11.09L74.64-11.09Q75.15-10.68 75.50-10.11L75.50-10.11L75.50-10.11Q75.86-9.55 76.08-8.90L76.08-8.90L76.08-8.90Q76.31-8.25 76.41-7.54L76.41-7.54L76.41-7.54Q76.51-6.82 76.51-6.12ZM87.75-17.20L92.16-16.95L92.16-16.95Q91.89-12.75 91.77-8.44L91.77-8.44L91.77-8.44Q91.65-4.14 91.65 0.12L91.65 0.12L87.75 0.12L87.82-1.20L87.82-1.20Q87.26-0.66 86.58-0.36L86.58-0.36L86.58-0.36Q85.90-0.07 85.29 0.06L85.29 0.06L85.29 0.06Q84.57 0.21 83.86 0.23L83.86 0.23L83.86 0.23Q82.52 0.23 81.45-0.25L81.45-0.25L81.45-0.25Q80.38-0.73 79.63-1.59L79.63-1.59L79.63-1.59Q78.89-2.46 78.49-3.68L78.49-3.68L78.49-3.68Q78.09-4.90 78.09-6.36L78.09-6.36L78.09-6.36Q78.09-7.34 78.33-8.17L78.33-8.17L78.33-8.17Q78.56-9 78.97-9.68L78.97-9.68L78.97-9.68Q79.38-10.36 79.93-10.88L79.93-10.88L79.93-10.88Q80.48-11.39 81.11-11.74L81.11-11.74L81.11-11.74Q81.73-12.09 82.39-12.28L82.39-12.28L82.39-12.28Q83.06-12.46 83.72-12.46L83.72-12.46L83.72-12.46Q84.53-12.43 85.30-12.25L85.30-12.25L85.30-12.25Q85.63-12.16 85.98-12.04L85.98-12.04L85.98-12.04Q86.33-11.92 86.68-11.74L86.68-11.74L86.68-11.74Q87.02-11.57 87.35-11.33L87.35-11.33L87.35-11.33Q87.67-11.10 87.94-10.78L87.94-10.78L87.94-10.78Q87.90-12.41 87.86-14.01L87.86-14.01L87.86-14.01Q87.81-15.61 87.75-17.20L87.75-17.20ZM86.40-2.84L86.40-2.84L86.40-2.84Q86.73-2.84 87.10-2.84L87.10-2.84L87.10-2.84Q87.47-2.84 87.87-2.86L87.87-2.86L87.87-2.86Q87.93-4.07 87.94-5.29L87.94-5.29L87.94-5.29Q87.96-6.52 87.96-7.76L87.96-7.76L87.96-9.19L87.96-9.19Q87.08-9.28 86.34-9.35L86.34-9.35L86.34-9.35Q85.59-9.41 84.75-9.41L84.75-9.41L84.75-9.41Q84.30-9.41 83.83-9.39L83.83-9.39L83.83-9.39Q83.36-9.38 82.78-9.34L82.78-9.34L82.78-9.34Q82.63-8.29 82.56-7.24L82.56-7.24L82.56-7.24Q82.49-6.20 82.49-5.13L82.49-5.13L82.49-5.13Q82.49-4.61 82.49-4.09L82.49-4.09L82.49-4.09Q82.50-3.57 82.56-3.05L82.56-3.05L82.56-3.05Q83.14-2.99 83.64-2.95L83.64-2.95L83.64-2.95Q84.14-2.92 84.60-2.89L84.60-2.89L84.60-2.89Q85.07-2.86 85.51-2.85L85.51-2.85L85.51-2.85Q85.95-2.84 86.40-2.84ZM93.98-12.23L98.45-12.23L98.45-12.23Q98.19-9.62 98.10-7.08L98.10-7.08L98.10-7.08Q98.02-4.54 98.02-1.99L98.02-1.99L98.02-1.99Q98.02-1.55 98.02-1.10L98.02-1.10L98.02-1.10Q98.02-0.64 98.04-0.19L98.04-0.19L94.42-0.19L94.42-0.19Q94.42-0.91 94.43-1.63L94.43-1.63L94.43-1.63Q94.44-2.34 94.44-3.05L94.44-3.05L94.44-3.05Q94.44-5.38 94.33-7.66L94.33-7.66L94.33-7.66Q94.22-9.95 93.98-12.23L93.98-12.23ZM98.45-16.03L98.45-16.03L98.45-16.03Q98.45-15.62 98.25-15.26L98.25-15.26L98.25-15.26Q98.05-14.91 97.70-14.64L97.70-14.64L97.70-14.64Q97.35-14.38 96.88-14.22L96.88-14.22L96.88-14.22Q96.41-14.06 95.88-14.06L95.88-14.06L95.88-14.06Q95.36-14.06 94.90-14.22L94.90-14.22L94.90-14.22Q94.44-14.38 94.10-14.64L94.10-14.64L94.10-14.64Q93.76-14.91 93.56-15.26L93.56-15.26L93.56-15.26Q93.36-15.62 93.36-16.03L93.36-16.03L93.36-16.03Q93.36-16.43 93.56-16.79L93.56-16.79L93.56-16.79Q93.76-17.14 94.10-17.41L94.10-17.41L94.10-17.41Q94.44-17.67 94.90-17.82L94.90-17.82L94.90-17.82Q95.36-17.98 95.88-17.98L95.88-17.98L95.88-17.98Q96.41-17.98 96.88-17.82L96.88-17.82L96.88-17.82Q97.35-17.67 97.70-17.41L97.70-17.41L97.70-17.41Q98.05-17.14 98.25-16.79L98.25-16.79L98.25-16.79Q98.45-16.43 98.45-16.03ZM113.31-6.12L113.31-6.12L113.31-6.12Q113.31-4.56 113.14-2.94L113.14-2.94L113.14-2.94Q112.98-1.32 112.58 0.29L112.58 0.29L108.50 0.29L108.50 0.29Q108.66-1.45 108.74-3.16L108.74-3.16L108.74-3.16Q108.82-4.86 108.82-6.60L108.82-6.60L108.82-6.60Q108.82-7.18 108.82-7.76L108.82-7.76L108.82-7.76Q108.82-8.34 108.80-8.93L108.80-8.93L108.80-8.93Q108.27-8.99 107.75-9.01L107.75-9.01L107.75-9.01Q107.24-9.02 106.71-9.02L106.71-9.02L106.71-9.02Q105.71-9.02 104.66-8.95L104.66-8.95L104.66-8.95Q104.63-7.99 104.61-7.17L104.61-7.17L104.61-7.17Q104.59-6.35 104.59-5.54L104.59-5.54L104.59-5.54Q104.59-4.95 104.60-4.33L104.60-4.33L104.60-4.33Q104.61-3.71 104.64-3.01L104.64-3.01L104.64-3.01Q104.67-2.31 104.72-1.49L104.72-1.49L104.72-1.49Q104.77-0.68 104.84 0.29L104.84 0.29L100.90 0.29L100.90 0.29Q100.90-1.11 100.89-2.19L100.89-2.19L100.89-2.19Q100.88-3.27 100.85-4.18L100.85-4.18L100.85-4.18Q100.83-5.09 100.79-5.91L100.79-5.91L100.79-5.91Q100.75-6.74 100.69-7.65L100.69-7.65L100.69-7.65Q100.63-8.55 100.56-9.63L100.56-9.63L100.56-9.63Q100.49-10.70 100.39-12.09L100.39-12.09L104.84-12.36L104.74-10.70L104.74-10.70Q105.41-11.17 106.11-11.43L106.11-11.43L106.11-11.43Q106.82-11.68 107.40-11.81L107.40-11.81L107.40-11.81Q108.08-11.95 108.73-11.98L108.73-11.98L108.73-11.98Q109.58-11.98 110.26-11.74L110.26-11.74L110.26-11.74Q110.93-11.51 111.44-11.09L111.44-11.09L111.44-11.09Q111.95-10.68 112.30-10.11L112.30-10.11L112.30-10.11Q112.65-9.55 112.88-8.90L112.88-8.90L112.88-8.90Q113.11-8.25 113.21-7.54L113.21-7.54L113.21-7.54Q113.31-6.82 113.31-6.12ZM123.94-12.74L128.31-12.46L128.31-12.46Q128.13-8.86 128.03-6.29L128.03-6.29L128.03-6.29Q127.93-3.73 127.89-2.09L127.89-2.09L127.89-2.09Q127.83-0.15 127.80 1.10L127.80 1.10L127.80 1.10Q127.75 2.59 127.15 3.67L127.15 3.67L127.15 3.67Q126.56 4.75 125.62 5.46L125.62 5.46L125.62 5.46Q124.68 6.18 123.47 6.55L123.47 6.55L123.47 6.55Q122.27 6.93 120.98 7.01L120.98 7.01L120.98 7.01Q119.68 7.01 118.61 6.69L118.61 6.69L118.61 6.69Q117.54 6.38 116.75 5.80L116.75 5.80L116.75 5.80Q115.96 5.23 115.46 4.44L115.46 4.44L115.46 4.44Q114.96 3.66 114.82 2.71L114.82 2.71L119.58 2.38L119.58 2.38Q119.46 2.68 119.43 3L119.43 3L119.43 3Q119.40 3.32 119.40 3.64L119.40 3.64L119.40 3.64Q119.40 3.94 119.43 4.24L119.43 4.24L119.43 4.24Q119.46 4.55 119.58 4.85L119.58 4.85L119.58 4.85Q119.74 4.88 119.91 4.88L119.91 4.88L119.91 4.88Q120.07 4.88 120.25 4.88L120.25 4.88L120.25 4.88Q121.92 4.88 123.56 4.51L123.56 4.51L123.56 4.51Q123.67 3.20 123.74 1.90L123.74 1.90L123.74 1.90Q123.81 0.61 123.87-0.69L123.87-0.69L123.87-0.69Q123.30-0.34 122.72-0.16L122.72-0.16L122.72-0.16Q122.13 0.02 121.64 0.12L121.64 0.12L121.64 0.12Q121.07 0.22 120.52 0.23L120.52 0.23L120.52 0.23Q119.86 0.23 119.19 0.05L119.19 0.05L119.19 0.05Q118.52-0.13 117.90-0.48L117.90-0.48L117.90-0.48Q117.28-0.83 116.73-1.35L116.73-1.35L116.73-1.35Q116.18-1.86 115.77-2.54L115.77-2.54L115.77-2.54Q115.36-3.22 115.13-4.05L115.13-4.05L115.13-4.05Q114.89-4.88 114.89-5.86L114.89-5.86L114.89-5.86Q114.89-7.32 115.28-8.54L115.28-8.54L115.28-8.54Q115.68-9.75 116.41-10.62L116.41-10.62L116.41-10.62Q117.15-11.50 118.22-11.98L118.22-11.98L118.22-11.98Q119.29-12.46 120.63-12.46L120.63-12.46L120.63-12.46Q121.18-12.45 121.76-12.34L121.76-12.34L121.76-12.34Q122.25-12.25 122.84-12.05L122.84-12.05L122.84-12.05Q123.42-11.86 123.96-11.50L123.96-11.50L123.96-11.50Q123.96-11.80 123.95-12.12L123.95-12.12L123.95-12.12Q123.94-12.43 123.94-12.74L123.94-12.74ZM124.02-7.17L124.02-7.17L124.02-7.17Q124.02-7.72 124.01-8.27L124.01-8.27L124.01-8.27Q124.01-8.81 123.98-9.36L123.98-9.36L123.98-9.36Q123.77-9.39 123.56-9.39L123.56-9.39L123.56-9.39Q123.35-9.39 123.15-9.39L123.15-9.39L123.15-9.39Q122.71-9.39 122.27-9.38L122.27-9.38L122.27-9.38Q121.84-9.36 121.38-9.33L121.38-9.33L121.38-9.33Q120.93-9.30 120.42-9.26L120.42-9.26L120.42-9.26Q119.92-9.22 119.33-9.16L119.33-9.16L119.33-9.16Q119.30-8.63 119.28-8.12L119.28-8.12L119.28-8.12Q119.26-7.61 119.26-7.08L119.26-7.08L119.26-7.08Q119.26-6.01 119.34-4.97L119.34-4.97L119.34-4.97Q119.43-3.94 119.58-2.88L119.58-2.88L119.58-2.88Q120.14-2.85 120.61-2.83L120.61-2.83L120.61-2.83Q121.08-2.81 121.52-2.81L121.52-2.81L121.52-2.81Q122.17-2.81 122.74-2.84L122.74-2.84L122.74-2.84Q123.32-2.86 123.96-2.93L123.96-2.93L123.96-2.93Q123.98-4.00 124.00-5.05L124.00-5.05L124.00-5.05Q124.02-6.11 124.02-7.17ZM146.16-2.43L146.16-2.43L146.16-2.43Q146.23-3.42 146.26-4.36L146.26-4.36L146.26-4.36Q146.29-5.30 146.29-6.21L146.29-6.21L146.29-6.21Q146.29-7.16 146.26-8.08L146.26-8.08L146.26-8.08Q146.23-9 146.16-9.98L146.16-9.98L146.16-9.98Q145.76-10.04 145.37-10.06L145.37-10.06L145.37-10.06Q144.97-10.08 144.57-10.08L144.57-10.08L144.57-10.08Q142.93-10.08 141.41-9.71L141.41-9.71L141.41-9.71Q141.38-9.08 141.35-8.46L141.35-8.46L141.35-8.46Q141.32-7.84 141.32-7.22L141.32-7.22L141.32-7.22Q141.32-5.98 141.42-4.74L141.42-4.74L141.42-4.74Q141.52-3.50 141.71-2.16L141.71-2.16L141.71-2.16Q141.98-2.13 142.26-2.13L142.26-2.13L142.26-2.13Q142.54-2.13 142.83-2.13L142.83-2.13L142.83-2.13Q143.64-2.13 144.47-2.20L144.47-2.20L144.47-2.20Q145.31-2.27 146.16-2.43ZM150.50-6.12L150.50-6.12L150.50-6.12Q150.50-4.72 149.96-3.50L149.96-3.50L149.96-3.50Q149.41-2.27 148.48-1.36L148.48-1.36L148.48-1.36Q147.54-0.45 146.28 0.09L146.28 0.09L146.28 0.09Q145.02 0.62 143.59 0.62L143.59 0.62L143.59 0.62Q142.17 0.62 140.98 0.09L140.98 0.09L140.98 0.09Q139.79-0.45 138.93-1.36L138.93-1.36L138.93-1.36Q138.07-2.27 137.59-3.50L137.59-3.50L137.59-3.50Q137.11-4.72 137.11-6.12L137.11-6.12L137.11-6.12Q137.11-7.84 137.59-9.11L137.59-9.11L137.59-9.11Q138.07-10.37 138.93-11.20L138.93-11.20L138.93-11.20Q139.79-12.04 140.98-12.44L140.98-12.44L140.98-12.44Q142.17-12.84 143.59-12.84L143.59-12.84L143.59-12.84Q145.02-12.84 146.28-12.39L146.28-12.39L146.28-12.39Q147.54-11.93 148.48-11.06L148.48-11.06L148.48-11.06Q149.41-10.20 149.96-8.95L149.96-8.95L149.96-8.95Q150.50-7.70 150.50-6.12ZM164.95-6.12L164.95-6.12L164.95-6.12Q164.95-4.56 164.79-2.94L164.79-2.94L164.79-2.94Q164.63-1.32 164.23 0.29L164.23 0.29L160.15 0.29L160.15 0.29Q160.30-1.45 160.38-3.16L160.38-3.16L160.38-3.16Q160.46-4.86 160.46-6.60L160.46-6.60L160.46-6.60Q160.46-7.18 160.46-7.76L160.46-7.76L160.46-7.76Q160.46-8.34 160.44-8.93L160.44-8.93L160.44-8.93Q159.91-8.99 159.40-9.01L159.40-9.01L159.40-9.01Q158.88-9.02 158.36-9.02L158.36-9.02L158.36-9.02Q157.36-9.02 156.30-8.95L156.30-8.95L156.30-8.95Q156.27-7.99 156.25-7.17L156.25-7.17L156.25-7.17Q156.23-6.35 156.23-5.54L156.23-5.54L156.23-5.54Q156.23-4.95 156.25-4.33L156.25-4.33L156.25-4.33Q156.26-3.71 156.29-3.01L156.29-3.01L156.29-3.01Q156.32-2.31 156.36-1.49L156.36-1.49L156.36-1.49Q156.41-0.68 156.48 0.29L156.48 0.29L152.54 0.29L152.54 0.29Q152.54-1.11 152.53-2.19L152.53-2.19L152.53-2.19Q152.52-3.27 152.50-4.18L152.50-4.18L152.50-4.18Q152.47-5.09 152.43-5.91L152.43-5.91L152.43-5.91Q152.39-6.74 152.33-7.65L152.33-7.65L152.33-7.65Q152.27-8.55 152.20-9.63L152.20-9.63L152.20-9.63Q152.13-10.70 152.04-12.09L152.04-12.09L156.48-12.36L156.39-10.70L156.39-10.70Q157.05-11.17 157.76-11.43L157.76-11.43L157.76-11.43Q158.46-11.68 159.05-11.81L159.05-11.81L159.05-11.81Q159.73-11.95 160.37-11.98L160.37-11.98L160.37-11.98Q161.23-11.98 161.90-11.74L161.90-11.74L161.90-11.74Q162.57-11.51 163.08-11.09L163.08-11.09L163.08-11.09Q163.59-10.68 163.95-10.11L163.95-10.11L163.95-10.11Q164.30-9.55 164.53-8.90L164.53-8.90L164.53-8.90Q164.75-8.25 164.85-7.54L164.85-7.54L164.85-7.54Q164.95-6.82 164.95-6.12ZM188.68-11.20L188.68-11.20L188.68-11.20Q188.68-9.41 188.01-8.10L188.01-8.10L188.01-8.10Q187.34-6.79 186.12-5.90L186.12-5.90L186.12-5.90Q184.90-5.02 183.18-4.52L183.18-4.52L183.18-4.52Q181.46-4.03 179.38-3.89L179.38-3.89L179.38-3.89Q179.47-2.94 179.56-1.95L179.56-1.95L179.56-1.95Q179.65-0.96 179.78 0.14L179.78 0.14L174.23 0.53L174.23 0.53Q174.47-2.48 174.60-5.47L174.60-5.47L174.60-5.47Q174.74-8.45 174.74-11.47L174.74-11.47L174.74-11.47Q174.74-12.26 174.73-12.90L174.73-12.90L174.73-12.90Q174.73-13.55 174.71-14.16L174.71-14.16L174.71-14.16Q174.69-14.77 174.66-15.41L174.66-15.41L174.66-15.41Q174.62-16.05 174.57-16.85L174.57-16.85L174.57-16.85Q175.99-17.29 177.46-17.47L177.46-17.47L177.46-17.47Q178.93-17.66 180.50-17.66L180.50-17.66L180.50-17.66Q181.29-17.66 182.20-17.58L182.20-17.58L182.20-17.58Q183.12-17.50 184.03-17.25L184.03-17.25L184.03-17.25Q184.93-17.00 185.77-16.56L185.77-16.56L185.77-16.56Q186.61-16.13 187.26-15.41L187.26-15.41L187.26-15.41Q187.91-14.70 188.30-13.66L188.30-13.66L188.30-13.66Q188.68-12.62 188.68-11.20ZM178.95-15.19L178.95-15.19L178.95-15.19Q178.95-14.07 178.95-13.01L178.95-13.01L178.95-13.01Q178.96-11.95 178.98-10.90L178.98-10.90L178.98-10.90Q179.00-9.86 179.04-8.79L179.04-8.79L179.04-8.79Q179.09-7.72 179.16-6.60L179.16-6.60L179.59-6.60L179.59-6.60Q180.62-6.60 181.66-6.66L181.66-6.66L181.66-6.66Q182.71-6.73 183.64-6.89L183.64-6.89L183.64-6.89Q183.81-7.52 183.88-8.48L183.88-8.48L183.88-8.48Q183.96-9.45 183.96-10.54L183.96-10.54L183.96-10.54Q183.96-11.21 183.93-11.91L183.93-11.91L183.93-11.91Q183.89-12.60 183.83-13.23L183.83-13.23L183.83-13.23Q183.77-13.86 183.67-14.41L183.67-14.41L183.67-14.41Q183.57-14.95 183.46-15.34L183.46-15.34L183.46-15.34Q183.29-15.36 183.08-15.38L183.08-15.38L183.08-15.38Q182.86-15.39 182.59-15.39L182.59-15.39L182.59-15.39Q182.05-15.39 181.42-15.35L181.42-15.35L181.42-15.35Q180.80-15.32 180.23-15.28L180.23-15.28L180.23-15.28Q179.59-15.23 178.95-15.19ZM202.46-7.44L202.46-7.44L202.46-7.44Q202.46-6.43 202.37-5.47L202.37-5.47L202.37-5.47Q202.27-4.50 202.01-3.63L202.01-3.63L202.01-3.63Q201.76-2.75 201.32-2.00L201.32-2.00L201.32-2.00Q200.88-1.24 200.21-0.67L200.21-0.67L200.21-0.67Q199.55-0.09 198.61 0.28L198.61 0.28L198.61 0.28Q197.67 0.64 196.42 0.74L196.42 0.74L196.42 0.74Q193.20 0.74 191.58-0.89L191.58-0.89L191.58-0.89Q189.96-2.52 189.96-5.71L189.96-5.71L189.96-5.71Q189.96-5.79 189.96-6.15L189.96-6.15L189.96-6.15Q189.96-6.50 189.97-7.04L189.97-7.04L189.97-7.04Q189.98-7.57 190.00-8.23L190.00-8.23L190.00-8.23Q190.02-8.89 190.07-9.59L190.07-9.59L190.07-9.59Q190.11-10.28 190.18-10.95L190.18-10.95L190.18-10.95Q190.24-11.61 190.35-12.16L190.35-12.16L194.45-12.16L194.45-12.16Q194.23-11.00 194.12-9.71L194.12-9.71L194.12-9.71Q194.02-8.43 194.02-7.08L194.02-7.08L194.02-7.08Q194.02-5.84 194.12-4.61L194.12-4.61L194.12-4.61Q194.21-3.39 194.45-2.29L194.45-2.29L194.45-2.29Q194.88-2.23 195.30-2.19L195.30-2.19L195.30-2.19Q195.71-2.16 196.13-2.16L196.13-2.16L196.13-2.16Q196.52-2.16 196.95-2.19L196.95-2.19L196.95-2.19Q197.38-2.23 197.79-2.29L197.79-2.29L197.79-2.29Q197.92-3.39 197.98-4.60L197.98-4.60L197.98-4.60Q198.05-5.81 198.05-7.05L198.05-7.05L198.05-7.05Q198.05-8.41 197.98-9.71L197.98-9.71L197.98-9.71Q197.92-11.00 197.79-12.16L197.79-12.16L202.03-12.16L202.03-12.16Q202.29-10.79 202.38-9.57L202.38-9.57L202.38-9.57Q202.46-8.36 202.46-7.44ZM217.44-5.95L213.22-5.61L213.22-5.61Q213.25-5.91 213.27-6.19L213.27-6.19L213.27-6.19Q213.29-6.48 213.29-6.77L213.29-6.77L213.29-6.77Q213.29-7.78 213.08-8.77L213.08-8.77L213.08-8.77Q211.99-8.72 210.92-8.61L210.92-8.61L210.92-8.61Q209.85-8.51 208.76-8.33L208.76-8.33L208.76-6L208.76-6Q208.76-4.46 208.76-2.96L208.76-2.96L208.76-2.96Q208.76-1.45 208.78 0.07L208.78 0.07L204.61 0.36L204.61 0.36Q204.64-0.07 204.65-0.49L204.65-0.49L204.65-0.49Q204.66-0.91 204.66-1.35L204.66-1.35L204.66-1.35Q204.66-4.07 204.56-6.73L204.56-6.73L204.56-6.73Q204.46-9.39 204.27-12.07L204.27-12.07L208.78-12.46L208.78-12.46Q208.78-12.13 208.77-11.81L208.77-11.81L208.77-11.81Q208.76-11.48 208.76-11.16L208.76-11.16L208.76-11.16Q209.44-11.65 210.12-11.91L210.12-11.91L210.12-11.91Q210.81-12.16 211.37-12.29L211.37-12.29L211.37-12.29Q212.02-12.43 212.63-12.46L212.63-12.46L212.63-12.46Q214.01-12.39 215.10-11.82L215.10-11.82L215.10-11.82Q215.55-11.59 216-11.22L216-11.22L216-11.22Q216.45-10.85 216.80-10.32L216.80-10.32L216.80-10.32Q217.15-9.79 217.36-9.06L217.36-9.06L217.36-9.06Q217.57-8.34 217.57-7.39L217.57-7.39L217.57-7.39Q217.57-7.07 217.54-6.71L217.54-6.71L217.54-6.71Q217.50-6.35 217.44-5.95L217.44-5.95ZM232.80-6.12L232.80-6.12L232.80-6.12Q232.80-4.65 232.41-3.49L232.41-3.49L232.41-3.49Q232.02-2.32 231.28-1.51L231.28-1.51L231.28-1.51Q230.54-0.70 229.48-0.27L229.48-0.27L229.48-0.27Q228.41 0.16 227.06 0.16L227.06 0.16L227.06 0.16Q226.29 0.14 225.54-0.05L225.54-0.05L225.54-0.05Q225.22-0.13 224.88-0.25L224.88-0.25L224.88-0.25Q224.53-0.38 224.19-0.56L224.19-0.56L224.19-0.56Q223.84-0.74 223.52-0.98L223.52-0.98L223.52-0.98Q223.21-1.23 222.94-1.56L222.94-1.56L222.94-1.56Q222.97 0.45 223.03 2.41L223.03 2.41L223.03 2.41Q223.09 4.37 223.18 6.19L223.18 6.19L218.74 5.91L218.74 5.91Q218.87 3.83 218.96 1.55L218.96 1.55L218.96 1.55Q219.06-0.74 219.12-3.06L219.12-3.06L219.12-3.06Q219.19-5.39 219.22-7.69L219.22-7.69L219.22-7.69Q219.25-9.98 219.25-12.09L219.25-12.09L223.18-12.09L223.18-12.09Q223.11-11.37 223.08-10.65L223.08-10.65L223.08-10.65Q223.35-10.95 223.67-11.16L223.67-11.16L223.67-11.16Q223.99-11.38 224.33-11.54L224.33-11.54L224.33-11.54Q224.67-11.71 225.02-11.82L225.02-11.82L225.02-11.82Q225.36-11.94 225.68-12.01L225.68-12.01L225.68-12.01Q226.42-12.19 227.19-12.21L227.19-12.21L227.19-12.21Q227.84-12.21 228.50-12.03L228.50-12.03L228.50-12.03Q229.17-11.85 229.80-11.50L229.80-11.50L229.80-11.50Q230.43-11.14 230.97-10.63L230.97-10.63L230.97-10.63Q231.52-10.11 231.93-9.43L231.93-9.43L231.93-9.43Q232.34-8.75 232.57-7.93L232.57-7.93L232.57-7.93Q232.80-7.10 232.80-6.12ZM222.94-3.82L222.94-3.07L222.94-3.07Q223.79-2.86 224.55-2.77L224.55-2.77L224.55-2.77Q225.30-2.68 226.14-2.68L226.14-2.68L226.14-2.68Q226.63-2.68 227.17-2.72L227.17-2.72L227.17-2.72Q227.71-2.75 228.34-2.81L228.34-2.81L228.34-2.81Q228.40-3.34 228.42-3.86L228.42-3.86L228.42-3.86Q228.43-4.37 228.43-4.90L228.43-4.90L228.43-4.90Q228.43-5.96 228.35-7.00L228.35-7.00L228.35-7.00Q228.27-8.04 228.12-9.09L228.12-9.09L228.12-9.09Q227.00-9.16 226.16-9.16L226.16-9.16L226.16-9.16Q225.75-9.16 225.38-9.15L225.38-9.15L225.38-9.15Q225-9.13 224.62-9.10L224.62-9.10L224.62-9.10Q224.24-9.07 223.85-9.04L223.85-9.04L223.85-9.04Q223.45-9 223.01-8.95L223.01-8.95L223.01-8.95Q222.94-6.43 222.94-3.82L222.94-3.82ZM243.09-2.43L243.09-2.43L243.09-2.43Q243.16-3.42 243.19-4.36L243.19-4.36L243.19-4.36Q243.22-5.30 243.22-6.21L243.22-6.21L243.22-6.21Q243.22-7.16 243.19-8.08L243.19-8.08L243.19-8.08Q243.16-9 243.09-9.98L243.09-9.98L243.09-9.98Q242.70-10.04 242.30-10.06L242.30-10.06L242.30-10.06Q241.91-10.08 241.51-10.08L241.51-10.08L241.51-10.08Q239.87-10.08 238.35-9.71L238.35-9.71L238.35-9.71Q238.31-9.08 238.28-8.46L238.28-8.46L238.28-8.46Q238.25-7.84 238.25-7.22L238.25-7.22L238.25-7.22Q238.25-5.98 238.35-4.74L238.35-4.74L238.35-4.74Q238.45-3.50 238.65-2.16L238.65-2.16L238.65-2.16Q238.92-2.13 239.20-2.13L239.20-2.13L239.20-2.13Q239.47-2.13 239.77-2.13L239.77-2.13L239.77-2.13Q240.57-2.13 241.41-2.20L241.41-2.20L241.41-2.20Q242.25-2.27 243.09-2.43ZM247.44-6.12L247.44-6.12L247.44-6.12Q247.44-4.72 246.90-3.50L246.90-3.50L246.90-3.50Q246.35-2.27 245.41-1.36L245.41-1.36L245.41-1.36Q244.48-0.45 243.22 0.09L243.22 0.09L243.22 0.09Q241.96 0.62 240.53 0.62L240.53 0.62L240.53 0.62Q239.11 0.62 237.92 0.09L237.92 0.09L237.92 0.09Q236.73-0.45 235.87-1.36L235.87-1.36L235.87-1.36Q235.01-2.27 234.53-3.50L234.53-3.50L234.53-3.50Q234.05-4.72 234.05-6.12L234.05-6.12L234.05-6.12Q234.05-7.84 234.53-9.11L234.53-9.11L234.53-9.11Q235.01-10.37 235.87-11.20L235.87-11.20L235.87-11.20Q236.73-12.04 237.92-12.44L237.92-12.44L237.92-12.44Q239.11-12.84 240.53-12.84L240.53-12.84L240.53-12.84Q241.96-12.84 243.22-12.39L243.22-12.39L243.22-12.39Q244.48-11.93 245.41-11.06L245.41-11.06L245.41-11.06Q246.35-10.20 246.90-8.95L246.90-8.95L246.90-8.95Q247.44-7.70 247.44-6.12ZM261.53-2.73L261.53-2.73L261.53-2.73Q261.53-1.70 261-1.01L261-1.01L261-1.01Q260.47-0.33 259.62 0.09L259.62 0.09L259.62 0.09Q258.76 0.50 257.67 0.67L257.67 0.67L257.67 0.67Q256.58 0.84 255.46 0.84L255.46 0.84L255.46 0.84Q254.84 0.84 254.13 0.77L254.13 0.77L254.13 0.77Q253.42 0.69 252.70 0.50L252.70 0.50L252.70 0.50Q251.99 0.30 251.31-0.02L251.31-0.02L251.31-0.02Q250.64-0.34 250.09-0.83L250.09-0.83L250.09-0.83Q249.54-1.32 249.15-1.99L249.15-1.99L249.15-1.99Q248.75-2.66 248.61-3.55L248.61-3.55L253.37-3.60L253.56-1.56L257.20-1.56L257.47-3.91L257.47-3.91Q256.75-4.08 255.81-4.20L255.81-4.20L255.81-4.20Q254.87-4.31 253.89-4.48L253.89-4.48L253.89-4.48Q252.90-4.65 251.95-4.92L251.95-4.92L251.95-4.92Q251.00-5.19 250.27-5.66L250.27-5.66L250.27-5.66Q249.53-6.13 249.07-6.84L249.07-6.84L249.07-6.84Q248.61-7.56 248.61-8.61L248.61-8.61L248.61-8.61Q248.61-9.75 249.16-10.53L249.16-10.53L249.16-10.53Q249.71-11.31 250.61-11.78L250.61-11.78L250.61-11.78Q251.51-12.26 252.64-12.48L252.64-12.48L252.64-12.48Q253.78-12.70 254.95-12.74L254.95-12.74L254.95-12.74Q255.57-12.74 256.29-12.67L256.29-12.67L256.29-12.67Q257.02-12.60 257.73-12.42L257.73-12.42L257.73-12.42Q258.45-12.23 259.11-11.92L259.11-11.92L259.11-11.92Q259.77-11.60 260.29-11.12L260.29-11.12L260.29-11.12Q260.81-10.63 261.15-9.94L261.15-9.94L261.15-9.94Q261.48-9.26 261.53-8.33L261.53-8.33L256.92-8.13L256.92-10.44L252.96-10.44L252.96-7.32L252.96-7.32Q253.72-7.16 254.66-7.07L254.66-7.07L254.66-7.07Q255.60-6.98 256.55-6.84L256.55-6.84L256.55-6.84Q257.50-6.70 258.39-6.46L258.39-6.46L258.39-6.46Q259.29-6.21 259.99-5.75L259.99-5.75L259.99-5.75Q260.68-5.30 261.11-4.57L261.11-4.57L261.11-4.57Q261.53-3.84 261.53-2.73ZM276.21-5.91L276.21-5.50L267.05-4.76L267.05-4.76Q267.11-4.03 267.21-3.32L267.21-3.32L267.21-3.32Q267.32-2.60 267.48-1.88L267.48-1.88L267.48-1.88Q268.51-1.80 269.47-1.80L269.47-1.80L269.47-1.80Q270-1.80 270.49-1.82L270.49-1.82L270.49-1.82Q270.98-1.84 271.51-1.88L271.51-1.88L271.51-1.88Q271.54-2.11 271.55-2.34L271.55-2.34L271.55-2.34Q271.56-2.58 271.56-2.81L271.56-2.81L271.56-2.81Q271.56-3.02 271.55-3.23L271.55-3.23L271.55-3.23Q271.55-3.43 271.51-3.64L271.51-3.64L275.93-3.55L275.93-3.55Q275.60-2.44 274.99-1.64L274.99-1.64L274.99-1.64Q274.37-0.84 273.53-0.33L273.53-0.33L273.53-0.33Q272.70 0.18 271.66 0.41L271.66 0.41L271.66 0.41Q270.63 0.64 269.50 0.64L269.50 0.64L269.50 0.64Q268.10 0.64 266.88 0.27L266.88 0.27L266.88 0.27Q265.65-0.11 264.74-0.94L264.74-0.94L264.74-0.94Q263.84-1.78 263.31-3.13L263.31-3.13L263.31-3.13Q262.79-4.48 262.79-6.43L262.79-6.43L262.79-6.43Q262.79-8.02 263.34-9.15L263.34-9.15L263.34-9.15Q263.89-10.29 264.81-11.03L264.81-11.03L264.81-11.03Q265.73-11.77 266.95-12.11L266.95-12.11L266.95-12.11Q268.16-12.46 269.50-12.46L269.50-12.46L269.50-12.46Q270.89-12.46 272.12-12.08L272.12-12.08L272.12-12.08Q273.34-11.71 274.25-10.91L274.25-10.91L274.25-10.91Q275.16-10.11 275.68-8.87L275.68-8.87L275.68-8.87Q276.21-7.63 276.21-5.91L276.21-5.91ZM266.93-7.22L266.93-7.22L271.63-7.22L271.63-7.22Q271.63-8.67 271.34-9.98L271.34-9.98L271.34-9.98Q270.33-10.20 269.23-10.20L269.23-10.20L269.23-10.20Q268.15-10.20 267.05-9.98L267.05-9.98L267.05-9.98Q266.98-9.33 266.95-8.65L266.95-8.65L266.95-8.65Q266.93-7.98 266.93-7.22Z" fill="#0579c1"></path></g></g><style>text {
  font-size: 64px;
  font-family: Arial Black;
  dominant-baseline: central;
  text-anchor: middle;
}</style></svg>