<svg width="315.85625px" height="66.8px" xmlns="http://www.w3.org/2000/svg" viewBox="92.071875 41.6 315.85625 66.8" style="background: none;" preserveAspectRatio="xMidYMid"><defs><filter id="editing-metal-beveled"><feGaussianBlur stdDeviation="4" in="SourceAlpha" result="blur"></feGaussianBlur><feSpecularLighting surfaceScale="5" specularConstant="0.8" specularExponent="7.5" lighting-color="#184471" in="blur" result="specular"><fePointLight x="-250" y="-50" z="300"></fePointLight></feSpecularLighting><feComposite operator="in" in="specular" in2="SourceAlpha" result="comp"></feComposite><feComposite in="SourceGraphic" in2="comp" operator="arithmetic" k1="0" k2="1" k3="1" k4="0"></feComposite></filter></defs><g filter="url(#editing-metal-beveled)"><g transform="translate(141.30882170796394, 87.33500003814697)"><path d="M14.57-17.54L14.57-14.29L14.57-14.29Q13.70-14.29 12.81-14.30L12.81-14.30L12.81-14.30Q11.93-14.31 11.02-14.31L11.02-14.31L9.98-14.31L9.98-14.31Q9.98-10.70 10.03-7.08L10.03-7.08L10.03-7.08Q10.08-3.46 10.28 0.16L10.28 0.16L4.95 0.16L4.95 0.16Q5.06-2.48 5.18-5.09L5.18-5.09L5.18-5.09Q5.23-6.19 5.27-7.39L5.27-7.39L5.27-7.39Q5.32-8.60 5.37-9.80L5.37-9.80L5.37-9.80Q5.41-10.99 5.44-12.12L5.44-12.12L5.44-12.12Q5.47-13.25 5.50-14.23L5.50-14.23L5.50-14.23Q4.15-14.19 2.84-14.14L2.84-14.14L2.84-14.14Q1.54-14.10 0.21-14.04L0.21-14.04L0.21-17.54L0.21-17.54Q2.06-17.47 3.88-17.45L3.88-17.45L3.88-17.45Q5.71-17.43 7.56-17.43L7.56-17.43L7.56-17.43Q9.34-17.43 11.09-17.45L11.09-17.45L11.09-17.45Q12.83-17.47 14.57-17.54L14.57-17.54ZM28.11-5.91L28.11-5.50L18.95-4.76L18.95-4.76Q19.01-4.03 19.11-3.32L19.11-3.32L19.11-3.32Q19.22-2.60 19.38-1.88L19.38-1.88L19.38-1.88Q20.41-1.80 21.38-1.80L21.38-1.80L21.38-1.80Q21.90-1.80 22.39-1.82L22.39-1.82L22.39-1.82Q22.89-1.84 23.41-1.88L23.41-1.88L23.41-1.88Q23.44-2.11 23.45-2.34L23.45-2.34L23.45-2.34Q23.46-2.58 23.46-2.81L23.46-2.81L23.46-2.81Q23.46-3.02 23.46-3.23L23.46-3.23L23.46-3.23Q23.45-3.43 23.41-3.64L23.41-3.64L27.83-3.55L27.83-3.55Q27.50-2.44 26.89-1.64L26.89-1.64L26.89-1.64Q26.27-0.84 25.44-0.33L25.44-0.33L25.44-0.33Q24.60 0.18 23.57 0.41L23.57 0.41L23.57 0.41Q22.54 0.64 21.40 0.64L21.40 0.64L21.40 0.64Q20.00 0.64 18.78 0.27L18.78 0.27L18.78 0.27Q17.55-0.11 16.65-0.94L16.65-0.94L16.65-0.94Q15.74-1.78 15.22-3.13L15.22-3.13L15.22-3.13Q14.70-4.48 14.70-6.43L14.70-6.43L14.70-6.43Q14.70-8.02 15.25-9.15L15.25-9.15L15.25-9.15Q15.80-10.29 16.72-11.03L16.72-11.03L16.72-11.03Q17.64-11.77 18.85-12.11L18.85-12.11L18.85-12.11Q20.06-12.46 21.40-12.46L21.40-12.46L21.40-12.46Q22.79-12.46 24.02-12.08L24.02-12.08L24.02-12.08Q25.24-11.71 26.15-10.91L26.15-10.91L26.15-10.91Q27.06-10.11 27.59-8.87L27.59-8.87L27.59-8.87Q28.11-7.63 28.11-5.91L28.11-5.91ZM18.83-7.22L18.83-7.22L23.53-7.22L23.53-7.22Q23.53-8.67 23.24-9.98L23.24-9.98L23.24-9.98Q22.23-10.20 21.13-10.20L21.13-10.20L21.13-10.20Q20.05-10.20 18.95-9.98L18.95-9.98L18.95-9.98Q18.88-9.33 18.86-8.65L18.86-8.65L18.86-8.65Q18.83-7.98 18.83-7.22ZM42.42-7.78L37.73-7.78L37.73-7.78Q37.79-8.06 37.82-8.35L37.82-8.35L37.82-8.35Q37.84-8.64 37.84-8.93L37.84-8.93L37.84-8.93Q37.84-9.20 37.82-9.46L37.82-9.46L37.82-9.46Q37.79-9.71 37.73-9.98L37.73-9.98L37.73-9.98Q37.23-10.08 36.71-10.11L36.71-10.11L36.71-10.11Q36.20-10.15 35.65-10.15L35.65-10.15L35.65-10.15Q35.11-10.15 34.56-10.11L34.56-10.11L34.56-10.11Q34.01-10.08 33.45-9.98L33.45-9.98L33.45-9.98Q33.39-9.35 33.36-8.74L33.36-8.74L33.36-8.74Q33.33-8.13 33.33-7.51L33.33-7.51L33.33-7.51Q33.33-6.08 33.47-4.68L33.47-4.68L33.47-4.68Q33.62-3.28 33.88-1.88L33.88-1.88L33.88-1.88Q34.41-1.82 34.89-1.80L34.89-1.80L34.89-1.80Q35.38-1.78 35.89-1.78L35.89-1.78L35.89-1.78Q36.40-1.78 36.89-1.80L36.89-1.80L36.89-1.80Q37.38-1.82 37.91-1.88L37.91-1.88L37.91-1.88Q37.93-2.12 37.95-2.36L37.95-2.36L37.95-2.36Q37.96-2.59 37.96-2.81L37.96-2.81L37.96-2.81Q37.96-3.02 37.95-3.23L37.95-3.23L37.95-3.23Q37.93-3.45 37.91-3.64L37.91-3.64L42.33-3.55L42.33-3.55Q42-2.44 41.38-1.64L41.38-1.64L41.38-1.64Q40.77-0.84 39.93-0.33L39.93-0.33L39.93-0.33Q39.09 0.18 38.06 0.41L38.06 0.41L38.06 0.41Q37.03 0.64 35.89 0.64L35.89 0.64L35.89 0.64Q34.50 0.64 33.28 0.27L33.28 0.27L33.28 0.27Q32.05-0.11 31.14-0.94L31.14-0.94L31.14-0.94Q30.23-1.78 29.71-3.13L29.71-3.13L29.71-3.13Q29.19-4.48 29.19-6.43L29.19-6.43L29.19-6.43Q29.19-8.02 29.74-9.15L29.74-9.15L29.74-9.15Q30.29-10.29 31.21-11.03L31.21-11.03L31.21-11.03Q32.13-11.77 33.35-12.11L33.35-12.11L33.35-12.11Q34.56-12.46 35.89-12.46L35.89-12.46L35.89-12.46Q37.08-12.46 38.14-12.18L38.14-12.18L38.14-12.18Q39.21-11.91 40.07-11.34L40.07-11.34L40.07-11.34Q40.93-10.77 41.54-9.88L41.54-9.88L41.54-9.88Q42.15-9 42.42-7.78L42.42-7.78ZM56.66-6.60L56.66-6.60L56.66-6.60Q56.66-5.04 56.50-3.42L56.50-3.42L56.50-3.42Q56.33-1.80 55.93-0.19L55.93-0.19L51.86-0.19L51.86-0.19Q52.00-1.93 52.08-3.64L52.08-3.64L52.08-3.64Q52.17-5.34 52.17-7.08L52.17-7.08L52.17-7.08Q52.17-7.66 52.17-8.24L52.17-8.24L52.17-8.24Q52.17-8.82 52.15-9.41L52.15-9.41L52.15-9.41Q51.62-9.47 51.10-9.49L51.10-9.49L51.10-9.49Q50.58-9.50 50.05-9.50L50.05-9.50L50.05-9.50Q49.00-9.50 47.94-9.43L47.94-9.43L47.94-7.92L47.94-7.92Q47.94-5.99 48-4.07L48-4.07L48-4.07Q48.06-2.16 48.19-0.19L48.19-0.19L44.25-0.19L44.25-0.19Q44.25-4.43 44.13-8.59L44.13-8.59L44.13-8.59Q44.02-12.75 43.75-16.95L43.75-16.95L48.19-17.20L48.19-17.20Q48.11-15.67 48.05-14.14L48.05-14.14L48.05-14.14Q47.99-12.62 47.96-11.09L47.96-11.09L47.96-11.09Q48.64-11.60 49.37-11.88L49.37-11.88L49.37-11.88Q50.10-12.15 50.70-12.28L50.70-12.28L50.70-12.28Q51.40-12.43 52.07-12.46L52.07-12.46L52.07-12.46Q52.92-12.46 53.60-12.22L53.60-12.22L53.60-12.22Q54.27-11.99 54.78-11.57L54.78-11.57L54.78-11.57Q55.29-11.16 55.65-10.59L55.65-10.59L55.65-10.59Q56.00-10.03 56.23-9.38L56.23-9.38L56.23-9.38Q56.46-8.73 56.56-8.02L56.56-8.02L56.56-8.02Q56.66-7.30 56.66-6.60ZM71.44-6.12L71.44-6.12L71.44-6.12Q71.44-4.56 71.27-2.94L71.27-2.94L71.27-2.94Q71.11-1.32 70.71 0.29L70.71 0.29L66.63 0.29L66.63 0.29Q66.79-1.45 66.87-3.16L66.87-3.16L66.87-3.16Q66.95-4.86 66.95-6.60L66.95-6.60L66.95-6.60Q66.95-7.18 66.95-7.76L66.95-7.76L66.95-7.76Q66.95-8.34 66.93-8.93L66.93-8.93L66.93-8.93Q66.40-8.99 65.88-9.01L65.88-9.01L65.88-9.01Q65.37-9.02 64.84-9.02L64.84-9.02L64.84-9.02Q63.84-9.02 62.79-8.95L62.79-8.95L62.79-8.95Q62.75-7.99 62.74-7.17L62.74-7.17L62.74-7.17Q62.72-6.35 62.72-5.54L62.72-5.54L62.72-5.54Q62.72-4.95 62.73-4.33L62.73-4.33L62.73-4.33Q62.74-3.71 62.77-3.01L62.77-3.01L62.77-3.01Q62.80-2.31 62.85-1.49L62.85-1.49L62.85-1.49Q62.89-0.68 62.96 0.29L62.96 0.29L59.03 0.29L59.03 0.29Q59.03-1.11 59.02-2.19L59.02-2.19L59.02-2.19Q59.00-3.27 58.98-4.18L58.98-4.18L58.98-4.18Q58.96-5.09 58.92-5.91L58.92-5.91L58.92-5.91Q58.88-6.74 58.82-7.65L58.82-7.65L58.82-7.65Q58.76-8.55 58.69-9.63L58.69-9.63L58.69-9.63Q58.62-10.70 58.52-12.09L58.52-12.09L62.96-12.36L62.87-10.70L62.87-10.70Q63.54-11.17 64.24-11.43L64.24-11.43L64.24-11.43Q64.95-11.68 65.53-11.81L65.53-11.81L65.53-11.81Q66.21-11.95 66.86-11.98L66.86-11.98L66.86-11.98Q67.71-11.98 68.38-11.74L68.38-11.74L68.38-11.74Q69.06-11.51 69.57-11.09L69.57-11.09L69.57-11.09Q70.08-10.68 70.43-10.11L70.43-10.11L70.43-10.11Q70.78-9.55 71.01-8.90L71.01-8.90L71.01-8.90Q71.24-8.25 71.34-7.54L71.34-7.54L71.34-7.54Q71.44-6.82 71.44-6.12ZM82.02-2.43L82.02-2.43L82.02-2.43Q82.09-3.42 82.12-4.36L82.12-4.36L82.12-4.36Q82.15-5.30 82.15-6.21L82.15-6.21L82.15-6.21Q82.15-7.16 82.12-8.08L82.12-8.08L82.12-8.08Q82.09-9 82.02-9.98L82.02-9.98L82.02-9.98Q81.62-10.04 81.23-10.06L81.23-10.06L81.23-10.06Q80.84-10.08 80.44-10.08L80.44-10.08L80.44-10.08Q78.80-10.08 77.27-9.71L77.27-9.71L77.27-9.71Q77.24-9.08 77.21-8.46L77.21-8.46L77.21-8.46Q77.18-7.84 77.18-7.22L77.18-7.22L77.18-7.22Q77.18-5.98 77.28-4.74L77.28-4.74L77.28-4.74Q77.38-3.50 77.58-2.16L77.58-2.16L77.58-2.16Q77.85-2.13 78.12-2.13L78.12-2.13L78.12-2.13Q78.40-2.13 78.69-2.13L78.69-2.13L78.69-2.13Q79.50-2.13 80.34-2.20L80.34-2.20L80.34-2.20Q81.18-2.27 82.02-2.43ZM86.37-6.12L86.37-6.12L86.37-6.12Q86.37-4.72 85.82-3.50L85.82-3.50L85.82-3.50Q85.28-2.27 84.34-1.36L84.34-1.36L84.34-1.36Q83.40-0.45 82.14 0.09L82.14 0.09L82.14 0.09Q80.88 0.62 79.45 0.62L79.45 0.62L79.45 0.62Q78.04 0.62 76.85 0.09L76.85 0.09L76.85 0.09Q75.66-0.45 74.79-1.36L74.79-1.36L74.79-1.36Q73.93-2.27 73.45-3.50L73.45-3.50L73.45-3.50Q72.97-4.72 72.97-6.12L72.97-6.12L72.97-6.12Q72.97-7.84 73.45-9.11L73.45-9.11L73.45-9.11Q73.93-10.37 74.79-11.20L74.79-11.20L74.79-11.20Q75.66-12.04 76.85-12.44L76.85-12.44L76.85-12.44Q78.04-12.84 79.45-12.84L79.45-12.84L79.45-12.84Q80.88-12.84 82.14-12.39L82.14-12.39L82.14-12.39Q83.40-11.93 84.34-11.06L84.34-11.06L84.34-11.06Q85.28-10.20 85.82-8.95L85.82-8.95L85.82-8.95Q86.37-7.70 86.37-6.12ZM88.16-17.66L92.32-17.66L92.32-17.66Q92.02-13.25 91.92-8.89L91.92-8.89L91.92-8.89Q91.82-4.52 91.82-0.19L91.82-0.19L88.16-0.19L88.16-0.19Q88.22-2.34 88.24-4.46L88.24-4.46L88.24-4.46Q88.27-6.59 88.27-8.73L88.27-8.73L88.27-8.73Q88.27-10.98 88.24-13.20L88.24-13.20L88.24-13.20Q88.22-15.41 88.16-17.66L88.16-17.66ZM102.82-2.43L102.82-2.43L102.82-2.43Q102.89-3.42 102.92-4.36L102.92-4.36L102.92-4.36Q102.95-5.30 102.95-6.21L102.95-6.21L102.95-6.21Q102.95-7.16 102.92-8.08L102.92-8.08L102.92-8.08Q102.89-9 102.82-9.98L102.82-9.98L102.82-9.98Q102.42-10.04 102.03-10.06L102.03-10.06L102.03-10.06Q101.64-10.08 101.24-10.08L101.24-10.08L101.24-10.08Q99.60-10.08 98.07-9.71L98.07-9.71L98.07-9.71Q98.04-9.08 98.01-8.46L98.01-8.46L98.01-8.46Q97.98-7.84 97.98-7.22L97.98-7.22L97.98-7.22Q97.98-5.98 98.08-4.74L98.08-4.74L98.08-4.74Q98.18-3.50 98.38-2.16L98.38-2.16L98.38-2.16Q98.65-2.13 98.92-2.13L98.92-2.13L98.92-2.13Q99.20-2.13 99.49-2.13L99.49-2.13L99.49-2.13Q100.30-2.13 101.14-2.20L101.14-2.20L101.14-2.20Q101.98-2.27 102.82-2.43ZM107.17-6.12L107.17-6.12L107.17-6.12Q107.17-4.72 106.62-3.50L106.62-3.50L106.62-3.50Q106.08-2.27 105.14-1.36L105.14-1.36L105.14-1.36Q104.20-0.45 102.94 0.09L102.94 0.09L102.94 0.09Q101.68 0.62 100.25 0.62L100.25 0.62L100.25 0.62Q98.84 0.62 97.65 0.09L97.65 0.09L97.65 0.09Q96.46-0.45 95.60-1.36L95.60-1.36L95.60-1.36Q94.73-2.27 94.25-3.50L94.25-3.50L94.25-3.50Q93.77-4.72 93.77-6.12L93.77-6.12L93.77-6.12Q93.77-7.84 94.25-9.11L94.25-9.11L94.25-9.11Q94.73-10.37 95.60-11.20L95.60-11.20L95.60-11.20Q96.46-12.04 97.65-12.44L97.65-12.44L97.65-12.44Q98.84-12.84 100.25-12.84L100.25-12.84L100.25-12.84Q101.68-12.84 102.94-12.39L102.94-12.39L102.94-12.39Q104.20-11.93 105.14-11.06L105.14-11.06L105.14-11.06Q106.08-10.20 106.62-8.95L106.62-8.95L106.62-8.95Q107.17-7.70 107.17-6.12ZM117.43-12.74L121.80-12.46L121.80-12.46Q121.63-8.86 121.53-6.29L121.53-6.29L121.53-6.29Q121.43-3.73 121.38-2.09L121.38-2.09L121.38-2.09Q121.32-0.15 121.30 1.10L121.30 1.10L121.30 1.10Q121.24 2.59 120.65 3.67L120.65 3.67L120.65 3.67Q120.06 4.75 119.12 5.46L119.12 5.46L119.12 5.46Q118.17 6.18 116.97 6.55L116.97 6.55L116.97 6.55Q115.77 6.93 114.48 7.01L114.48 7.01L114.48 7.01Q113.18 7.01 112.11 6.69L112.11 6.69L112.11 6.69Q111.04 6.38 110.24 5.80L110.24 5.80L110.24 5.80Q109.45 5.23 108.96 4.44L108.96 4.44L108.96 4.44Q108.46 3.66 108.32 2.71L108.32 2.71L113.07 2.38L113.07 2.38Q112.96 2.68 112.93 3L112.93 3L112.93 3Q112.90 3.32 112.90 3.64L112.90 3.64L112.90 3.64Q112.90 3.94 112.93 4.24L112.93 4.24L112.93 4.24Q112.96 4.55 113.07 4.85L113.07 4.85L113.07 4.85Q113.24 4.88 113.40 4.88L113.40 4.88L113.40 4.88Q113.57 4.88 113.74 4.88L113.74 4.88L113.74 4.88Q115.42 4.88 117.06 4.51L117.06 4.51L117.06 4.51Q117.16 3.20 117.23 1.90L117.23 1.90L117.23 1.90Q117.30 0.61 117.36-0.69L117.36-0.69L117.36-0.69Q116.80-0.34 116.21-0.16L116.21-0.16L116.21-0.16Q115.63 0.02 115.14 0.12L115.14 0.12L115.14 0.12Q114.56 0.22 114.01 0.23L114.01 0.23L114.01 0.23Q113.36 0.23 112.69 0.05L112.69 0.05L112.69 0.05Q112.02-0.13 111.40-0.48L111.40-0.48L111.40-0.48Q110.78-0.83 110.23-1.35L110.23-1.35L110.23-1.35Q109.68-1.86 109.27-2.54L109.27-2.54L109.27-2.54Q108.86-3.22 108.62-4.05L108.62-4.05L108.62-4.05Q108.39-4.88 108.39-5.86L108.39-5.86L108.39-5.86Q108.39-7.32 108.78-8.54L108.78-8.54L108.78-8.54Q109.17-9.75 109.91-10.62L109.91-10.62L109.91-10.62Q110.65-11.50 111.71-11.98L111.71-11.98L111.71-11.98Q112.78-12.46 114.13-12.46L114.13-12.46L114.13-12.46Q114.68-12.45 115.25-12.34L115.25-12.34L115.25-12.34Q115.75-12.25 116.33-12.05L116.33-12.05L116.33-12.05Q116.92-11.86 117.46-11.50L117.46-11.50L117.46-11.50Q117.46-11.80 117.45-12.12L117.45-12.12L117.45-12.12Q117.43-12.43 117.43-12.74L117.43-12.74ZM117.52-7.17L117.52-7.17L117.52-7.17Q117.52-7.72 117.51-8.27L117.51-8.27L117.51-8.27Q117.50-8.81 117.48-9.36L117.48-9.36L117.48-9.36Q117.27-9.39 117.06-9.39L117.06-9.39L117.06-9.39Q116.85-9.39 116.65-9.39L116.65-9.39L116.65-9.39Q116.20-9.39 115.77-9.38L115.77-9.38L115.77-9.38Q115.34-9.36 114.88-9.33L114.88-9.33L114.88-9.33Q114.42-9.30 113.92-9.26L113.92-9.26L113.92-9.26Q113.41-9.22 112.83-9.16L112.83-9.16L112.83-9.16Q112.79-8.63 112.78-8.12L112.78-8.12L112.78-8.12Q112.76-7.61 112.76-7.08L112.76-7.08L112.76-7.08Q112.76-6.01 112.84-4.97L112.84-4.97L112.84-4.97Q112.92-3.94 113.07-2.88L113.07-2.88L113.07-2.88Q113.64-2.85 114.11-2.83L114.11-2.83L114.11-2.83Q114.57-2.81 115.02-2.81L115.02-2.81L115.02-2.81Q115.66-2.81 116.24-2.84L116.24-2.84L116.24-2.84Q116.81-2.86 117.46-2.93L117.46-2.93L117.46-2.93Q117.48-4.00 117.50-5.05L117.50-5.05L117.50-5.05Q117.52-6.11 117.52-7.17ZM131.98-12.34L136.85-12.14L136.85-12.14Q136.79-9.07 136.70-6.84L136.70-6.84L136.70-6.84Q136.61-4.62 136.51-3.13L136.51-3.13L136.51-3.13Q136.41-1.39 136.30-0.21L136.30-0.21L136.30-0.21Q136.23 1.21 135.78 2.38L135.78 2.38L135.78 2.38Q135.33 3.55 134.51 4.39L134.51 4.39L134.51 4.39Q133.69 5.24 132.52 5.70L132.52 5.70L132.52 5.70Q131.34 6.16 129.82 6.16L129.82 6.16L129.82 6.16Q128.80 6.16 128.04 6.04L128.04 6.04L128.04 6.04Q127.28 5.92 126.71 5.68L126.71 5.68L126.71 5.68Q126.14 5.44 125.74 5.09L125.74 5.09L125.74 5.09Q125.33 4.73 125.03 4.27L125.03 4.27L125.03 4.27Q124.72 3.81 124.49 3.23L124.49 3.23L124.49 3.23Q124.27 2.66 124.05 1.99L124.05 1.99L128.36 1.90L128.36 1.90Q128.36 2.06 128.34 2.21L128.34 2.21L128.34 2.21Q128.33 2.36 128.33 2.50L128.33 2.50L128.33 2.50Q128.33 3.38 128.47 4.20L128.47 4.20L128.47 4.20Q128.93 4.25 129.27 4.29L129.27 4.29L129.27 4.29Q129.61 4.32 129.94 4.32L129.94 4.32L129.94 4.32Q130.38 4.32 130.85 4.27L130.85 4.27L130.85 4.27Q131.32 4.21 131.98 4.10L131.98 4.10L131.98 4.10Q132.09 2.87 132.18 1.66L132.18 1.66L132.18 1.66Q132.26 0.45 132.32-0.77L132.32-0.77L132.32-0.77Q131.82-0.56 131.37-0.45L131.37-0.45L131.37-0.45Q130.92-0.34 130.58-0.28L130.58-0.28L130.58-0.28Q130.18-0.22 129.82-0.21L129.82-0.21L129.82-0.21Q128.12-0.21 127.02-0.64L127.02-0.64L127.02-0.64Q125.92-1.07 125.24-1.85L125.24-1.85L125.24-1.85Q124.57-2.63 124.26-3.72L124.26-3.72L124.26-3.72Q123.95-4.82 123.83-6.14L123.83-6.14L123.83-6.14Q123.71-7.46 123.71-8.98L123.71-8.98L123.71-8.98Q123.71-10.50 123.68-12.14L123.68-12.14L128.47-11.81L128.47-11.81Q128.38-10.71 128.32-9.62L128.32-9.62L128.32-9.62Q128.26-8.53 128.26-7.44L128.26-7.44L128.26-7.44Q128.26-6.32 128.32-5.21L128.32-5.21L128.32-5.21Q128.38-4.10 128.47-3L128.47-3L128.47-3Q128.91-2.96 129.28-2.96L129.28-2.96L129.28-2.96Q129.66-2.95 130.03-2.95L130.03-2.95L130.03-2.95Q130.65-2.95 131.23-2.97L131.23-2.97L131.23-2.97Q131.81-2.99 132.39-3.05L132.39-3.05L132.39-3.05Q132.41-3.42 132.41-3.81L132.41-3.81L132.41-3.81Q132.41-4.21 132.41-4.58L132.41-4.58L132.41-4.58Q132.41-6.54 132.31-8.47L132.31-8.47L132.31-8.47Q132.21-10.41 131.98-12.34L131.98-12.34ZM161.32-4.90L161.32-4.90L161.32-4.90Q161.32-3.38 160.72-2.33L160.72-2.33L160.72-2.33Q160.11-1.28 159.04-0.63L159.04-0.63L159.04-0.63Q157.97 0.02 156.49 0.31L156.49 0.31L156.49 0.31Q155.02 0.60 153.28 0.60L153.28 0.60L153.28 0.60Q152.50 0.60 151.65 0.45L151.65 0.45L151.65 0.45Q150.81 0.30 149.99-0.02L149.99-0.02L149.99-0.02Q149.17-0.34 148.42-0.83L148.42-0.83L148.42-0.83Q147.67-1.32 147.08-2.02L147.08-2.02L147.08-2.02Q146.48-2.72 146.08-3.62L146.08-3.62L146.08-3.62Q145.68-4.52 145.56-5.66L145.56-5.66L150.67-5.77L150.67-5.77Q150.64-5.44 150.64-5.10L150.64-5.10L150.64-5.10Q150.64-4.76 150.64-4.39L150.64-4.39L150.64-4.39Q150.64-3.38 150.71-2.31L150.71-2.31L150.71-2.31Q151.41-2.23 152.10-2.19L152.10-2.19L152.10-2.19Q152.79-2.16 153.48-2.16L153.48-2.16L153.48-2.16Q154.17-2.16 154.85-2.19L154.85-2.19L154.85-2.19Q155.53-2.23 156.23-2.31L156.23-2.31L156.23-2.31Q156.29-2.71 156.33-3.09L156.33-3.09L156.33-3.09Q156.36-3.47 156.36-3.87L156.36-3.87L156.36-3.87Q156.36-4.51 156.28-5.17L156.28-5.17L156.28-5.17Q156.20-5.82 156.07-6.48L156.07-6.48L156.07-6.48Q155.25-6.57 154.18-6.69L154.18-6.69L154.18-6.69Q153.12-6.81 152.00-7.04L152.00-7.04L152.00-7.04Q150.88-7.27 149.81-7.65L149.81-7.65L149.81-7.65Q148.73-8.03 147.89-8.65L147.89-8.65L147.89-8.65Q147.05-9.28 146.53-10.20L146.53-10.20L146.53-10.20Q146.02-11.11 146.02-12.41L146.02-12.41L146.02-12.41Q146.02-13.31 146.35-14.05L146.35-14.05L146.35-14.05Q146.68-14.79 147.25-15.37L147.25-15.37L147.25-15.37Q147.82-15.95 148.58-16.38L148.58-16.38L148.58-16.38Q149.33-16.82 150.17-17.10L150.17-17.10L150.17-17.10Q151.01-17.38 151.88-17.52L151.88-17.52L151.88-17.52Q152.74-17.66 153.55-17.66L153.55-17.66L153.55-17.66Q155.32-17.66 156.67-17.11L156.67-17.11L156.67-17.11Q158.02-16.56 158.94-15.67L158.94-15.67L158.94-15.67Q159.86-14.79 160.36-13.68L160.36-13.68L160.36-13.68Q160.86-12.56 160.95-11.45L160.95-11.45L155.59-10.88L155.59-10.88Q155.65-11.32 155.67-11.77L155.67-11.77L155.67-11.77Q155.68-12.22 155.68-12.67L155.68-12.67L155.68-12.67Q155.68-13.69 155.54-14.73L155.54-14.73L155.54-14.73Q155.14-14.79 154.75-14.81L154.75-14.81L154.75-14.81Q154.36-14.84 153.96-14.84L153.96-14.84L153.96-14.84Q152.38-14.84 150.76-14.45L150.76-14.45L150.76-14.45Q150.74-14.16 150.74-13.88L150.74-13.88L150.74-13.88Q150.74-13.59 150.74-13.32L150.74-13.32L150.74-13.32Q150.74-12.50 150.80-11.71L150.80-11.71L150.80-11.71Q150.87-10.92 151.05-10.13L151.05-10.13L151.05-10.13Q152.03-10.00 153.16-9.85L153.16-9.85L153.16-9.85Q154.30-9.70 155.44-9.46L155.44-9.46L155.44-9.46Q156.59-9.22 157.65-8.87L157.65-8.87L157.65-8.87Q158.71-8.51 159.52-7.97L159.52-7.97L159.52-7.97Q160.34-7.44 160.83-6.69L160.83-6.69L160.83-6.69Q161.32-5.93 161.32-4.90ZM174.07-12.46L174.07-8.93L174.07-8.93Q172.93-8.99 171.79-9.04L171.79-9.04L171.79-9.04Q170.65-9.08 169.51-9.12L169.51-9.12L169.51-9.12Q169.37-6.79 169.27-4.46L169.27-4.46L169.27-4.46Q169.16-2.14 169.10 0.21L169.10 0.21L165.68 0.55L165.68 0.55Q165.75-3.74 165.75-7.95L165.75-7.95L165.75-9.19L164.91-9.19L164.91-9.19Q164.20-9.19 163.50-9.18L163.50-9.18L163.50-9.18Q162.80-9.16 162.09-9.16L162.09-9.16L162.09-12.14L162.09-12.14Q162.40-12.14 162.71-12.13L162.71-12.13L162.71-12.13Q163.02-12.12 163.35-12.12L163.35-12.12L165.73-12.12L165.73-12.12Q165.73-13.21 165.71-14.27L165.71-14.27L165.71-14.27Q165.70-15.33 165.68-16.39L165.68-16.39L170.12-16.39L170.12-16.39Q170.00-15.34 169.92-14.30L169.92-14.30L169.92-14.30Q169.83-13.27 169.76-12.23L169.76-12.23L169.76-12.23Q170.85-12.28 171.91-12.33L171.91-12.33L171.91-12.33Q172.97-12.39 174.07-12.46L174.07-12.46ZM188.63 0.14L184.85 0.39L184.85 0.39Q184.85 0.05 184.84-0.30L184.84-0.30L184.84-0.30Q184.83-0.64 184.83-0.98L184.83-0.98L184.83-0.98Q184.21-0.42 183.53-0.13L183.53-0.13L183.53-0.13Q182.86 0.15 182.30 0.29L182.30 0.29L182.30 0.29Q181.64 0.46 181.00 0.48L181.00 0.48L181.00 0.48Q179.82 0.48 178.74 0.12L178.74 0.12L178.74 0.12Q177.66-0.23 176.81-0.95L176.81-0.95L176.81-0.95Q175.97-1.66 175.45-2.74L175.45-2.74L175.45-2.74Q174.93-3.81 174.87-5.23L174.87-5.23L174.87-5.23Q174.87-6.66 175.25-7.83L175.25-7.83L175.25-7.83Q175.64-9.01 176.41-9.86L176.41-9.86L176.41-9.86Q177.19-10.70 178.34-11.16L178.34-11.16L178.34-11.16Q179.48-11.63 181.00-11.64L181.00-11.64L181.00-11.64Q181.04-11.64 181.35-11.62L181.35-11.62L181.35-11.62Q181.66-11.60 182.12-11.51L182.12-11.51L182.12-11.51Q182.58-11.43 183.12-11.23L183.12-11.23L183.12-11.23Q183.66-11.04 184.18-10.70L184.18-10.70L184.00-12.14L188.63-12.46L188.63-12.46Q188.48-9.09 188.48-5.77L188.48-5.77L188.48-5.77Q188.48-4.96 188.49-4.24L188.49-4.24L188.49-4.24Q188.50-3.52 188.51-2.81L188.51-2.81L188.51-2.81Q188.53-2.10 188.56-1.38L188.56-1.38L188.56-1.38Q188.59-0.66 188.63 0.14L188.63 0.14ZM179.38-2.45L179.38-2.45L179.38-2.45Q180.77-2.51 182.12-2.64L182.12-2.64L182.12-2.64Q183.47-2.77 184.78-3.02L184.78-3.02L184.78-3.02Q184.75-4.48 184.66-5.84L184.66-5.84L184.66-5.84Q184.57-7.20 184.42-8.61L184.42-8.61L183.75-8.61L183.75-8.61Q182.61-8.61 181.47-8.54L181.47-8.54L181.47-8.54Q180.33-8.46 179.17-8.29L179.17-8.29L179.17-8.29Q179.03-7.05 179.03-5.81L179.03-5.81L179.03-5.81Q179.03-5.34 179.05-4.94L179.05-4.94L179.05-4.94Q179.07-4.54 179.12-4.14L179.12-4.14L179.12-4.14Q179.16-3.74 179.22-3.33L179.22-3.33L179.22-3.33Q179.29-2.92 179.38-2.45ZM203.67-7.78L198.98-7.78L198.98-7.78Q199.04-8.06 199.07-8.35L199.07-8.35L199.07-8.35Q199.09-8.64 199.09-8.93L199.09-8.93L199.09-8.93Q199.09-9.20 199.07-9.46L199.07-9.46L199.07-9.46Q199.04-9.71 198.98-9.98L198.98-9.98L198.98-9.98Q198.48-10.08 197.96-10.11L197.96-10.11L197.96-10.11Q197.45-10.15 196.90-10.15L196.90-10.15L196.90-10.15Q196.36-10.15 195.81-10.11L195.81-10.11L195.81-10.11Q195.26-10.08 194.70-9.98L194.70-9.98L194.70-9.98Q194.64-9.35 194.61-8.74L194.61-8.74L194.61-8.74Q194.58-8.13 194.58-7.51L194.58-7.51L194.58-7.51Q194.58-6.08 194.72-4.68L194.72-4.68L194.72-4.68Q194.87-3.28 195.13-1.88L195.13-1.88L195.13-1.88Q195.66-1.82 196.14-1.80L196.14-1.80L196.14-1.80Q196.63-1.78 197.14-1.78L197.14-1.78L197.14-1.78Q197.65-1.78 198.14-1.80L198.14-1.80L198.14-1.80Q198.63-1.82 199.16-1.88L199.16-1.88L199.16-1.88Q199.18-2.12 199.20-2.36L199.20-2.36L199.20-2.36Q199.21-2.59 199.21-2.81L199.21-2.81L199.21-2.81Q199.21-3.02 199.20-3.23L199.20-3.23L199.20-3.23Q199.18-3.45 199.16-3.64L199.16-3.64L203.58-3.55L203.58-3.55Q203.25-2.44 202.63-1.64L202.63-1.64L202.63-1.64Q202.02-0.84 201.18-0.33L201.18-0.33L201.18-0.33Q200.34 0.18 199.31 0.41L199.31 0.41L199.31 0.41Q198.28 0.64 197.14 0.64L197.14 0.64L197.14 0.64Q195.75 0.64 194.53 0.27L194.53 0.27L194.53 0.27Q193.30-0.11 192.39-0.94L192.39-0.94L192.39-0.94Q191.48-1.78 190.96-3.13L190.96-3.13L190.96-3.13Q190.44-4.48 190.44-6.43L190.44-6.43L190.44-6.43Q190.44-8.02 190.99-9.15L190.99-9.15L190.99-9.15Q191.54-10.29 192.46-11.03L192.46-11.03L192.46-11.03Q193.38-11.77 194.60-12.11L194.60-12.11L194.60-12.11Q195.81-12.46 197.14-12.46L197.14-12.46L197.14-12.46Q198.33-12.46 199.39-12.18L199.39-12.18L199.39-12.18Q200.46-11.91 201.32-11.34L201.32-11.34L201.32-11.34Q202.18-10.77 202.79-9.88L202.79-9.88L202.79-9.88Q203.40-9 203.67-7.78L203.67-7.78ZM212.26-13.20L216.29-13.20L216.29-13.20Q216.21-12.23 215.89-11.39L215.89-11.39L215.89-11.39Q215.58-10.55 215.09-9.81L215.09-9.81L215.09-9.81Q214.61-9.08 214.00-8.46L214.00-8.46L214.00-8.46Q213.39-7.83 212.72-7.30L212.72-7.30L212.72-7.30Q213.93-5.77 214.79-4.12L214.79-4.12L214.79-4.12Q215.66-2.47 216.29-0.69L216.29-0.69L212.26 0.23L212.26 0.23Q212.10-1.36 211.65-2.85L211.65-2.85L211.65-2.85Q211.21-4.35 210.40-5.73L210.40-5.73L210.40-5.73Q209.98-5.50 209.57-5.31L209.57-5.31L209.57-5.31Q209.17-5.13 208.83-4.97L208.83-4.97L208.83-3.91L208.83-3.91Q208.83-2.96 208.86-2.05L208.86-2.05L208.86-2.05Q208.89-1.14 208.89-0.19L208.89-0.19L205.50 0.23L205.50 0.23Q205.50-4.11 205.37-8.47L205.37-8.47L205.37-8.47Q205.24-12.83 204.95-17.20L204.95-17.20L209.31-17.20L209.31-17.20Q209.13-14.63 209.02-12.06L209.02-12.06L209.02-12.06Q208.90-9.50 208.86-6.91L208.86-6.91L208.86-6.91Q209.45-7.38 209.91-7.91L209.91-7.91L209.91-7.91Q210.36-8.44 210.71-8.96L210.71-8.96L210.71-8.96Q211.07-9.49 211.31-10.01L211.31-10.01L211.31-10.01Q211.56-10.54 211.73-11.00L211.73-11.00L211.73-11.00Q212.13-12.11 212.26-13.20L212.26-13.20Z" fill="#142a34"></path></g></g><style>text {
  font-size: 64px;
  font-family: Arial Black;
  dominant-baseline: central;
  text-anchor: middle;
}</style></svg>