<svg width="237.7625px" height="64.4px" xmlns="http://www.w3.org/2000/svg" viewBox="131.11875 42.8 237.7625 64.4" style="background: none;" preserveAspectRatio="xMidYMid"><defs><filter id="editing-metal-beveled"><feGaussianBlur stdDeviation="4" in="SourceAlpha" result="blur"></feGaussianBlur><feSpecularLighting surfaceScale="5" specularConstant="0.8" specularExponent="7.5" lighting-color="#cecece" in="blur" result="specular"><fePointLight x="-250" y="-50" z="300"></fePointLight></feSpecularLighting><feComposite operator="in" in="specular" in2="SourceAlpha" result="comp"></feComposite><feComposite in="SourceGraphic" in2="comp" operator="arithmetic" k1="0" k2="1" k3="1" k4="0"></feComposite></filter></defs><g filter="url(#editing-metal-beveled)"><g transform="translate(169.94501161575317, 83.69500255584717)"><path d="M11.47-7.79L1.77-7.79L1.77-9.40L11.47-9.40L11.47-7.79ZM11.47-3.30L1.77-3.30L1.77-4.91L11.47-4.91L11.47-3.30ZM25.73 0L22.17 0L22.17-16.85L25.73-16.85L25.73-16.85Q27.18-16.85 28.41-16.71L28.41-16.71L28.41-16.71Q29.65-16.56 30.68-16.20L30.68-16.20L30.68-16.20Q31.71-15.83 32.49-15.23L32.49-15.23L32.49-15.23Q33.27-14.63 33.83-13.69L33.83-13.69L33.83-13.69Q34.38-12.75 34.66-11.46L34.66-11.46L34.66-11.46Q34.95-10.17 34.95-8.43L34.95-8.43L34.95-8.43Q34.95-6.68 34.66-5.39L34.66-5.39L34.66-5.39Q34.38-4.10 33.83-3.16L33.83-3.16L33.83-3.16Q33.27-2.23 32.49-1.62L32.49-1.62L32.49-1.62Q31.71-1.02 30.68-0.66L30.68-0.66L30.68-0.66Q29.65-0.29 28.41-0.15L28.41-0.15L28.41-0.15Q27.18 0 25.73 0L25.73 0ZM24.38-1.80L26.10-1.80L26.10-1.80Q27.89-1.80 29.14-2.16L29.14-2.16L29.14-2.16Q30.39-2.52 31.18-3.33L31.18-3.33L31.18-3.33Q31.97-4.14 32.33-5.38L32.33-5.38L32.33-5.38Q32.68-6.63 32.68-8.43L32.68-8.43L32.68-8.43Q32.68-10.22 32.33-11.47L32.33-11.47L32.33-11.47Q31.97-12.71 31.18-13.52L31.18-13.52L31.18-13.52Q30.39-14.33 29.14-14.69L29.14-14.69L29.14-14.69Q27.89-15.05 26.10-15.05L26.10-15.05L24.38-15.05L24.38-1.80ZM51.97 0L49.73 0L47.52-5.73L40.85-5.73L38.64 0L36.40 0L43.08-16.85L45.29-16.85L51.97 0ZM44.18-14.39L41.54-7.54L46.83-7.54L44.18-14.39ZM54.60 0L54.60-16.85L56.80-16.85L56.80 0L54.60 0ZM61.48 0L61.48-16.85L63.68-16.85L63.68-1.80L70.58-1.80L70.58 0L61.48 0ZM79.35-9.40L84.04-16.85L86.54-16.85L80.45-7.59L80.45 0L78.26 0L78.26-7.59L72.16-16.85L74.67-16.85L79.35-9.40ZM96.39 0L96.39-16.85L98.59-16.85L98.59-1.80L105.49-1.80L105.49 0L96.39 0ZM122.39-8.43L122.39-8.43L122.39-8.43Q122.39-4.20 120.48-1.96L120.48-1.96L120.48-1.96Q118.57 0.28 115.00 0.28L115.00 0.28L115.00 0.28Q111.46 0.28 109.53-1.95L109.53-1.95L109.53-1.95Q107.60-4.18 107.60-8.43L107.60-8.43L107.60-8.43Q107.60-12.66 109.54-14.88L109.54-14.88L109.54-14.88Q111.47-17.11 115.00-17.11L115.00-17.11L115.00-17.11Q118.57-17.11 120.48-14.87L120.48-14.87L120.48-14.87Q122.39-12.62 122.39-8.43ZM120.13-8.43L120.13-8.43L120.13-8.43Q120.13-11.68 118.85-13.48L118.85-13.48L118.85-13.48Q117.56-15.27 114.98-15.27L114.98-15.27L114.98-15.27Q112.39-15.27 111.13-13.46L111.13-13.46L111.13-13.46Q109.86-11.65 109.86-8.43L109.86-8.43L109.86-8.43Q109.86-6.84 110.16-5.60L110.16-5.60L110.16-5.60Q110.46-4.35 111.08-3.44L111.08-3.44L111.08-3.44Q111.69-2.53 112.68-2.04L112.68-2.04L112.68-2.04Q113.67-1.56 114.98-1.56L114.98-1.56L114.98-1.56Q117.56-1.56 118.85-3.36L118.85-3.36L118.85-3.36Q120.13-5.16 120.13-8.43ZM138.41-8.66L138.41-0.90L138.41-0.90Q137.02-0.33 135.52-0.02L135.52-0.02L135.52-0.02Q134.03 0.28 132.62 0.28L132.62 0.28L132.62 0.28Q130.79 0.28 129.38-0.23L129.38-0.23L129.38-0.23Q127.97-0.75 127.01-1.80L127.01-1.80L127.01-1.80Q126.05-2.86 125.55-4.46L125.55-4.46L125.55-4.46Q125.05-6.06 125.05-8.23L125.05-8.23L125.05-8.23Q125.05-10.58 125.56-12.27L125.56-12.27L125.56-12.27Q126.07-13.96 127.04-15.03L127.04-15.03L127.04-15.03Q128.02-16.10 129.44-16.61L129.44-16.61L129.44-16.61Q130.86-17.11 132.69-17.11L132.69-17.11L132.69-17.11Q133.83-17.11 135.08-16.88L135.08-16.88L135.08-16.88Q136.34-16.65 137.66-16.23L137.66-16.23L137.04-14.47L137.04-14.47Q135.86-14.87 134.82-15.07L134.82-15.07L134.82-15.07Q133.78-15.27 132.73-15.27L132.73-15.27L132.73-15.27Q131.37-15.27 130.35-14.87L130.35-14.87L130.35-14.87Q129.33-14.47 128.65-13.64L128.65-13.64L128.65-13.64Q127.98-12.81 127.65-11.52L127.65-11.52L127.65-11.52Q127.31-10.23 127.31-8.45L127.31-8.45L127.31-8.45Q127.31-6.69 127.62-5.39L127.62-5.39L127.62-5.39Q127.93-4.09 128.58-3.24L128.58-3.24L128.58-3.24Q129.22-2.39 130.22-1.97L130.22-1.97L130.22-1.97Q131.21-1.56 132.57-1.56L132.57-1.56L132.57-1.56Q133.54-1.56 134.51-1.76L134.51-1.76L134.51-1.76Q135.48-1.96 136.29-2.23L136.29-2.23L136.29-6.89L133.46-6.89L133.46-8.66L138.41-8.66ZM158.34-7.79L148.64-7.79L148.64-9.40L158.34-9.40L158.34-7.79ZM158.34-3.30L148.64-3.30L148.64-4.91L158.34-4.91L158.34-3.30Z" fill="#000000"></path></g></g><style>text {
  font-size: 64px;
  font-family: Arial Black;
  dominant-baseline: central;
  text-anchor: middle;
}</style></svg>